# xmcd
#
# Track frame offsets:
#	150
#	14760
#	27252
#	43553
#	58784
#	72648
#	92444
#	113557
#	132624
#	148163
#	165246
#	179905
#	192507
#	205364
#	220924
#	233702
#	253772
#	275911
#	291426
#	302453
#
# Disc length: 4223 seconds
#
# Revision: 1
# Processed by: cddbd v1.5.2PL0 Copyright (c) Steve Scherf et al.
# Submitted via: audiograbber 1.83.01
#
DISCID=41107d14
DTITLE=Eduardo Costa - As 20 Mais No Buteco
DYEAR=2008
DGENRE=Sertanejo
TTITLE0=Eduardo Costa - Tô indo embora
TTITLE1=Eduardo Costa - Linda Demais
TTITLE2=Eduardo Costa - Entre ele e seu
TTITLE3=Eduardo Costa - Diz pro meu olhar
TTITLE4=Eduardo Costa - Cicatriz
TTITLE5=Eduardo Costa - Desatino
TTITLE6=Eduardo Costa - Me Esqueça
TTITLE7=Eduardo Costa - E de madrugada
TTITLE8=Eduardo Costa - Página de amigo
TTITLE9=Eduardo Costa - Eu e a Solidão
TTITLE10=Eduardo Costa - Nos bares da cidade
TTITLE11=Eduardo Costa - Tranque a porta e me beija
TTITLE12=Eduardo Costa - Boneca cobiçada
TTITLE13=Eduardo Costa - No momento que eu te amei
TTITLE14=Eduardo Costa - Viagem louca
TTITLE15=Eduardo Costa - Amor perfeito
TTITLE16=Eduardo Costa - Quando a gente ama demais
TTITLE17=Eduardo Costa - Não dá pra fazer amor sem você
TTITLE18=Eduardo Costa - A gente sempre se entende
TTITLE19=Eduardo Costa - Depois do adeus
EXTD=Ripado por VaM_PiRo
EXTT0=
EXTT1=
EXTT2=
EXTT3=
EXTT4=
EXTT5=
EXTT6=
EXTT7=
EXTT8=
EXTT9=
EXTT10=
EXTT11=
EXTT12=
EXTT13=
EXTT14=
EXTT15=
EXTT16=
EXTT17=
EXTT18=
EXTT19=
PLAYORDER=
